# xmcd CD database file
#
# Track frame offsets:
#	150
#	11085
#	22182
#	32889
#	48408
#	58893
#	69426
#	82128
#	93561
#	103314
#	112437
#	121995
#	132831
#	145392
#	157908
#	168381
#	178236
#	191955
#	203523
#	216861
#
# Disc length: 3043 seconds
#
# Revision: 1
# Processed by: cddbd v1.5.2PL0 Copyright (c) Steve Scherf et al.
# Submitted via: CDex 1.51
#
DISCID=380be114
DTITLE=THE BEST COUNTRY MUSIC - CD01- THE BEST COUNTRY MUSIC
DYEAR=2014
DGENRE=Country
TTITLE0=HELLO WALLS (WILLIE NELSON) - FARON YOUNG
TTITLE1=KING OF THE ROAD (R. MILLER) - ROGER MILLER
TTITLE2=HE'LL HAVE TO GO (J&A ALLISON) - JIM REEVES
TTITLE3=MAMA SANG A SONG (B. ANDERSON) - BILL ANDERSON
TTITLE4=ACT NATURALLY (RUSSELL - MORRISON) - BUCK OWENS
TTITLE5=ONE A DAY (ANDERSON) - CONNIE SMITH
TTITLE6=I FALL TWO PIECES (COCHRAM - HOWARD) - PATSY CLINE
TTITLE7=IN THE MIDDLE OF HEARTACHE (CHRISTENSON-FRANZESE-JACKSON) - WANDA JACKSON
TTITLE8=WHAT'S HE DOIN' IN MY WORLD (BELEW-MOORE-BUSH) - EDDY ARNOLD
TTITLE9=RAWHIDE (D.TIOMKIN-WASHINGTON) - FRANKIE LAINE
TTITLE10=THE RACE IS ON (ROLLINS) - GEORGE JONES
TTITLE11=SEND ME THE PILLOW THAT YOU DREAM ON (HANK LOCKLIN) - HANK LOCKLIN
TTITLE12=HIGH NOON (DOT NO FORSAKE) (TIOMKIN-WASHINTON) - TEX RITTER
TTITLE13=I'VE BEEN EVERYWHERE (G.MACK) - HANK SNOW
TTITLE14=KISSES SWEETER THAN WINE (SEEGER-HAYS) - JIMMY RODGERS
TTITLE15=BALLAD OF A TEENAGER QUEEN (J.CLEMENT) - JOHNNY CASH
TTITLE16=I WANT TO BE WITH YOU ALWAYS (FRIZZELL-BECK) - LEFTIE FRIZZELL
TTITLE17=THE STORY OF MY LIFE (BACHARACH-DAVID) - MARTY ROBBINS
TTITLE18=TENNESSEE WALTZ (STEWART-P.WEE KING) - PATTI PAGE
TTITLE19=CRAZY ARMS (SEALS-MOONEY) - RAY PRICE
EXTD=YEAR: 2014
EXTT0=
EXTT1=
EXTT2=
EXTT3=
EXTT4=
EXTT5=
EXTT6=
EXTT7=
EXTT8=
EXTT9=
EXTT10=
EXTT11=
EXTT12=
EXTT13=
EXTT14=
EXTT15=
EXTT16=
EXTT17=
EXTT18=
EXTT19=
PLAYORDER=
